<?xml version="1.0" encoding="utf-8"?>
<!-- Generator: Adobe Illustrator 26.0.1, SVG Export Plug-In . SVG Version: 6.00 Build 0)  -->
<svg version="1.1" id="Layer_1" xmlns="http://www.w3.org/2000/svg" xmlns:xlink="http://www.w3.org/1999/xlink" x="0px" y="0px"
	 viewBox="0 0 60 36.69" style="enable-background:new 0 0 60 36.69;" xml:space="preserve">
<style type="text/css">
	.st0{fill:#E0CBAA;}
	.st1{fill:none;stroke:#CCB894;stroke-width:0.2;stroke-miterlimit:10;}
	.st2{fill:#5A758F;}
	.st3{fill:none;stroke:#2A3D51;stroke-width:0.3;stroke-miterlimit:10;}
	.st4{fill:none;stroke:#2A3D51;stroke-width:0.2;stroke-miterlimit:10;}
	.st5{fill:none;stroke:#2A3D51;stroke-width:0.15;stroke-miterlimit:10;}
	.st6{fill:none;stroke:#2A3D51;stroke-width:0.4;stroke-miterlimit:10;}
</style>
<rect x="1.37" y="8.1" class="st0" width="57.24" height="28.62"/>
<rect x="1.48" y="8.1" class="st0" width="57.24" height="28.62"/>
<line class="st1" x1="4.18" y1="8.1" x2="4.18" y2="36.72"/>
<line class="st1" x1="5.19" y1="8.1" x2="5.19" y2="36.72"/>
<line class="st1" x1="6.27" y1="8.1" x2="6.27" y2="36.72"/>
<line class="st1" x1="7.34" y1="8.1" x2="7.34" y2="36.72"/>
<line class="st1" x1="8.45" y1="8.1" x2="8.45" y2="36.72"/>
<line class="st1" x1="9.58" y1="8.1" x2="9.58" y2="36.72"/>
<line class="st1" x1="10.72" y1="8.1" x2="10.72" y2="36.72"/>
<line class="st1" x1="11.9" y1="8.1" x2="11.9" y2="36.72"/>
<line class="st1" x1="13.09" y1="8.1" x2="13.09" y2="36.72"/>
<line class="st1" x1="14.25" y1="8.1" x2="14.25" y2="36.72"/>
<line class="st1" x1="15.37" y1="8.1" x2="15.37" y2="36.72"/>
<line class="st1" x1="16.46" y1="8.1" x2="16.46" y2="36.72"/>
<line class="st1" x1="17.52" y1="8.1" x2="17.52" y2="36.72"/>
<line class="st1" x1="18.71" y1="8.1" x2="18.71" y2="36.72"/>
<line class="st1" x1="19.81" y1="8.1" x2="19.81" y2="36.72"/>
<line class="st1" x1="20.94" y1="8.1" x2="20.94" y2="36.72"/>
<line class="st1" x1="22.28" y1="8.1" x2="22.28" y2="36.72"/>
<line class="st1" x1="23.59" y1="8.1" x2="23.59" y2="36.72"/>
<line class="st1" x1="24.82" y1="8.1" x2="24.82" y2="36.72"/>
<line class="st1" x1="26.13" y1="8.1" x2="26.13" y2="36.72"/>
<line class="st1" x1="27.48" y1="8.1" x2="27.48" y2="36.72"/>
<line class="st1" x1="28.92" y1="8.1" x2="28.92" y2="36.72"/>
<line class="st1" x1="30.39" y1="8.1" x2="30.39" y2="36.72"/>
<line class="st1" x1="31.73" y1="8.1" x2="31.73" y2="36.72"/>
<line class="st1" x1="33.07" y1="8.1" x2="33.07" y2="36.72"/>
<line class="st1" x1="34.49" y1="8.1" x2="34.49" y2="36.72"/>
<line class="st1" x1="35.72" y1="8.1" x2="35.72" y2="36.72"/>
<line class="st1" x1="36.98" y1="8.1" x2="36.98" y2="36.72"/>
<line class="st1" x1="38.16" y1="8.1" x2="38.16" y2="36.72"/>
<line class="st1" x1="39.45" y1="8.11" x2="39.45" y2="36.73"/>
<line class="st1" x1="40.66" y1="8.1" x2="40.66" y2="36.72"/>
<line class="st1" x1="41.84" y1="8.1" x2="41.84" y2="36.72"/>
<line class="st1" x1="42.96" y1="8.1" x2="42.96" y2="36.72"/>
<line class="st1" x1="44.1" y1="8.1" x2="44.1" y2="36.72"/>
<line class="st1" x1="45.19" y1="8.1" x2="45.19" y2="36.72"/>
<line class="st1" x1="46.33" y1="8.1" x2="46.33" y2="36.72"/>
<line class="st1" x1="47.51" y1="8.1" x2="47.51" y2="36.72"/>
<line class="st1" x1="48.69" y1="8.1" x2="48.69" y2="36.72"/>
<line class="st1" x1="49.8" y1="8.1" x2="49.8" y2="36.72"/>
<line class="st1" x1="50.92" y1="8.1" x2="50.92" y2="36.72"/>
<line class="st1" x1="52.04" y1="8.1" x2="52.04" y2="36.72"/>
<line class="st1" x1="53.05" y1="8.1" x2="53.05" y2="36.72"/>
<line class="st1" x1="54.08" y1="8.1" x2="54.08" y2="36.72"/>
<line class="st1" x1="55.1" y1="8.1" x2="55.1" y2="36.72"/>
<line class="st1" x1="56.1" y1="8.08" x2="56.1" y2="36.7"/>
<rect x="1.37" y="8.1" class="st2" width="1.86" height="28.62"/>
<rect x="56.86" y="8.1" class="st2" width="1.86" height="28.62"/>
<rect x="0.01" y="0" class="st2" width="59.99" height="8.1"/>
<line class="st3" x1="19.91" y1="0" x2="19.91" y2="8.1"/>
<line class="st3" x1="0.15" y1="0" x2="0.15" y2="8.1"/>
<line class="st3" x1="39.99" y1="0" x2="39.99" y2="8.1"/>
<line class="st3" x1="59.85" y1="0" x2="59.85" y2="8.1"/>
<g>
	<rect x="5.73" y="8.24" class="st2" width="38.16" height="17.82"/>
	<line class="st4" x1="5.73" y1="10.66" x2="43.71" y2="10.66"/>
	<line class="st5" x1="5.73" y1="11.56" x2="43.71" y2="11.56"/>
	<line class="st5" x1="5.81" y1="12.5" x2="43.79" y2="12.5"/>
	<line class="st5" x1="5.73" y1="13.39" x2="43.71" y2="13.39"/>
	<line class="st5" x1="5.73" y1="14.31" x2="43.71" y2="14.31"/>
	<line class="st5" x1="5.72" y1="15.3" x2="43.7" y2="15.3"/>
	<line class="st5" x1="5.73" y1="16.22" x2="43.71" y2="16.22"/>
	<line class="st5" x1="5.73" y1="17.19" x2="43.71" y2="17.19"/>
	<line class="st5" x1="5.73" y1="18.1" x2="43.71" y2="18.1"/>
	<line class="st5" x1="5.73" y1="19.09" x2="43.71" y2="19.09"/>
	<line class="st5" x1="5.73" y1="20.07" x2="43.71" y2="20.07"/>
	<line class="st5" x1="5.73" y1="21.06" x2="43.71" y2="21.06"/>
	<line class="st5" x1="5.73" y1="21.97" x2="43.71" y2="21.97"/>
	<line class="st5" x1="5.73" y1="22.88" x2="43.71" y2="22.88"/>
	<line class="st5" x1="5.73" y1="23.87" x2="43.71" y2="23.87"/>
	<line class="st5" x1="5.73" y1="24.85" x2="43.71" y2="24.85"/>
	<line class="st3" x1="5.73" y1="25.88" x2="43.89" y2="25.88"/>
	<line class="st6" x1="25.11" y1="10.57" x2="25.11" y2="25.91"/>
	<line class="st3" x1="43.74" y1="10.53" x2="43.74" y2="25.8"/>
	<line class="st3" x1="5.88" y1="10.59" x2="5.88" y2="25.88"/>
	<rect x="5.64" y="8.24" class="st3" width="38.36" height="2.42"/>
</g>
</svg>
